<svg width="337px" height="194px" viewBox="0 0 337 194" version="1.1" xmlns="http://www.w3.org/2000/svg" xmlns:xlink="http://www.w3.org/1999/xlink">
    <g id="mainpage" stroke="none" stroke-width="1" fill="none" fill-rule="evenodd">
        <g id="05_START-Copy" transform="translate(-22.000000, -306.000000)" fill="#FFFFFF" fill-rule="nonzero">
            <g id="DOWN-THE-RABBIT-HOLE" transform="translate(22.917000, 306.818000)">
                <path d="M0.059,1.342 L0.059,89.182 L21.165,89.182 C33.609,89.182 42.393,84.18 42.393,69.418 L42.393,20.984 C42.393,6.344 34.219,1.342 21.531,1.342 L0.059,1.342 Z M20.189,17.934 C21.653,17.934 22.019,18.422 22.019,20.496 L22.019,68.93 C22.019,71.614 21.653,71.858 20.067,71.858 L19.823,71.858 L19.823,17.934 L20.189,17.934 Z" id="Shape"></path>
                <path d="M65.451,90.28 C78.017,90.28 86.557,84.79 86.557,69.662 L86.557,20.74 C86.557,6.222 78.261,0 65.451,0 C52.397,0 44.223,6.1 44.223,20.74 L44.223,69.662 C44.223,84.79 52.275,90.28 65.451,90.28 Z M65.451,72.102 C64.353,72.102 64.353,71.736 64.353,68.32 L64.353,21.106 C64.353,17.69 64.353,17.446 65.451,17.446 C66.427,17.446 66.549,17.69 66.549,21.106 L66.549,68.32 C66.549,71.736 66.427,72.102 65.451,72.102 Z" id="Shape"></path>
                <polygon id="Path" points="92.291 89.182 118.155 89.182 120.351 53.192 120.839 25.01 121.327 53.192 123.523 89.182 148.655 89.182 154.755 1.342 134.991 1.342 133.527 34.282 133.771 68.564 132.551 35.258 130.477 1.342 111.201 1.342 108.883 35.258 107.785 68.442 107.907 34.282 106.931 1.342 86.557 1.342"></polygon>
                <polygon id="Path" points="154.755 89.182 174.031 89.182 174.031 67.344 169.273 26.352 178.911 89.182 201.115 89.182 201.115 1.342 182.449 1.342 182.449 20.374 187.695 66.49 177.935 1.342 154.755 1.342"></polygon>
                <polygon id="Path" points="228.809 89.182 249.061 89.182 249.061 20.862 256.381 20.862 256.381 1.342 221.611 1.342 221.611 20.862 228.809 20.862"></polygon>
                <polygon id="Path" points="257.967 1.342 257.967 89.182 277.609 89.182 277.609 54.168 279.683 54.168 279.683 89.182 299.325 89.182 299.325 1.342 279.683 1.342 279.683 35.502 277.609 35.502 277.609 1.342"></polygon>
                <polygon id="Path" points="301.399 89.182 333.851 89.182 333.851 69.174 321.041 69.174 321.041 54.778 333.851 54.778 333.851 35.136 321.041 35.136 321.041 20.862 333.851 20.862 333.851 1.342 301.399 1.342"></polygon>
                <path d="M0,191.182 L16.506,191.182 L16.506,153.716 C17.816,153.716 18.34,153.978 18.34,156.074 L18.34,185.025 C18.34,188.038 18.733,190.789 19.912,191.182 L36.811,191.182 C34.977,189.479 34.584,187.514 34.584,184.632 L34.584,155.419 C34.584,149.917 33.143,147.428 29.475,146.249 C33.405,144.808 34.715,141.795 34.715,135.769 L34.715,110.093 C34.715,100.53 30.785,96.862 19.126,96.862 L0,96.862 L0,191.182 Z M16.899,110.879 C17.947,110.879 18.34,111.141 18.34,112.451 L18.34,137.21 C18.34,138.52 17.947,138.913 16.506,138.913 L16.506,110.879 L16.899,110.879 Z" id="Shape"></path>
                <path d="M34.584,191.182 L50.566,191.182 L50.959,184.763 L54.889,184.763 L55.282,191.182 L71.395,191.182 L62.88,96.862 L42.444,96.862 L34.584,191.182 Z M52.531,153.847 L52.793,128.302 L53.317,153.847 L54.234,171.008 L51.614,171.008 L52.531,153.847 Z" id="Shape"></path>
                <path d="M71.264,191.182 L91.438,191.182 C101.787,191.182 106.241,186.466 106.241,178.213 L106.241,152.013 C106.241,146.249 105.062,143.236 100.084,141.926 C105.455,140.747 106.241,137.603 106.241,129.612 L106.241,109.438 C106.241,101.447 101.787,96.862 90.521,96.862 L71.264,96.862 L71.264,191.182 Z M88.032,110.093 C88.818,110.093 89.342,110.355 89.342,111.534 L89.342,133.411 C89.342,134.721 89.08,135.114 88.032,135.114 L87.508,135.114 L87.508,110.093 L88.032,110.093 Z M87.901,149.655 C89.08,149.655 89.473,150.048 89.473,151.358 L89.473,175.593 C89.473,176.772 89.08,177.165 88.032,177.165 L87.508,177.165 L87.508,149.655 L87.901,149.655 Z" id="Shape"></path>
                <path d="M107.944,191.182 L128.118,191.182 C138.467,191.182 142.921,186.466 142.921,178.213 L142.921,152.013 C142.921,146.249 141.742,143.236 136.764,141.926 C142.135,140.747 142.921,137.603 142.921,129.612 L142.921,109.438 C142.921,101.447 138.467,96.862 127.201,96.862 L107.944,96.862 L107.944,191.182 Z M124.712,110.093 C125.498,110.093 126.022,110.355 126.022,111.534 L126.022,133.411 C126.022,134.721 125.76,135.114 124.712,135.114 L124.188,135.114 L124.188,110.093 L124.712,110.093 Z M124.581,149.655 C125.76,149.655 126.153,150.048 126.153,151.358 L126.153,175.593 C126.153,176.772 125.76,177.165 124.712,177.165 L124.188,177.165 L124.188,149.655 L124.581,149.655 Z" id="Shape"></path>
                <polygon id="Path" points="144.493 191.182 161.523 191.182 161.523 96.862 144.493 96.862"></polygon>
                <polygon id="Path" points="168.597 191.182 185.889 191.182 185.889 114.285 191.391 114.285 191.391 96.862 162.964 96.862 162.964 114.285 168.597 114.285"></polygon>
                <polygon id="Path" points="209.207 96.862 209.207 191.182 225.582 191.182 225.582 151.096 227.547 151.096 227.547 191.182 244.184 191.182 244.184 96.862 227.547 96.862 227.547 135.507 225.582 135.507 225.582 96.862"></polygon>
                <path d="M263.703,192.23 C274.314,192.23 281.65,187.907 281.65,175.331 L281.65,112.582 C281.65,101.054 274.838,95.814 263.834,95.814 C252.83,95.814 245.887,101.054 245.887,112.582 L245.887,175.331 C245.887,187.907 252.961,192.23 263.703,192.23 Z M263.834,176.379 C262.917,176.379 262.786,176.248 262.786,173.628 L262.786,113.237 C262.786,110.748 262.917,110.617 263.703,110.617 C264.489,110.617 264.62,110.748 264.62,113.237 L264.62,173.628 C264.62,176.248 264.489,176.379 263.834,176.379 Z" id="Shape"></path>
                <polygon id="Path" points="283.353 96.862 283.353 191.182 308.243 191.182 308.243 173.366 300.383 173.366 300.383 96.862"></polygon>
                <polygon id="Path" points="309.684 191.182 335.098 191.182 335.098 173.497 326.321 173.497 326.321 152.537 335.098 152.537 335.098 135.245 326.321 135.245 326.321 114.285 335.098 114.285 335.098 96.862 309.684 96.862"></polygon>
            </g>
        </g>
    </g>
</svg>